<svg xmlns="http://www.w3.org/2000/svg" viewBox="0 0 512 512" width="512" height="512">
  <rect width="512" height="512" rx="112" fill="#FFFFFF"/>
  <g>
    <rect x="88" y="88" width="72" height="72" rx="18" fill="#E3E7EC" opacity="0.55"/>
    <rect x="176" y="88" width="72" height="72" rx="18" fill="#E3E7EC" opacity="0.55"/>
    <rect x="264" y="88" width="72" height="72" rx="18" fill="#F6C86B"/>
    <rect x="352" y="88" width="72" height="72" rx="18" fill="#E3E7EC" opacity="0.55"/>
    <rect x="88" y="176" width="72" height="72" rx="18" fill="#E3E7EC" opacity="0.55"/>
    <rect x="176" y="176" width="72" height="72" rx="18" fill="#F0A63C"/>
    <rect x="264" y="176" width="72" height="72" rx="18" fill="#F0A63C"/>
    <rect x="352" y="176" width="72" height="72" rx="18" fill="#E3E7EC" opacity="0.55"/>
    <rect x="88" y="264" width="72" height="72" rx="18" fill="#E3E7EC" opacity="0.55"/>
    <rect x="176" y="264" width="72" height="72" rx="18" fill="#E34A31"/>
    <rect x="264" y="264" width="72" height="72" rx="18" fill="#E34A31"/>
    <rect x="352" y="264" width="72" height="72" rx="18" fill="#E3E7EC" opacity="0.55"/>
    <rect x="88" y="352" width="72" height="72" rx="18" fill="#E3E7EC" opacity="0.55"/>
    <rect x="176" y="352" width="72" height="72" rx="18" fill="#C0492F"/>
    <rect x="264" y="352" width="72" height="72" rx="18" fill="#C0492F"/>
    <rect x="352" y="352" width="72" height="72" rx="18" fill="#E3E7EC" opacity="0.55"/>
  </g>
</svg>